<?xml version="1.0" encoding="utf-8"?>
<!-- Generator: Adobe Illustrator 23.1.1, SVG Export Plug-In . SVG Version: 6.00 Build 0)  -->
<svg version="1.1" id="Layer_1" xmlns="http://www.w3.org/2000/svg" xmlns:xlink="http://www.w3.org/1999/xlink" x="0px" y="0px"
	 viewBox="0 0 194 58" style="enable-background:new 0 0 194 58;" xml:space="preserve">
<style type="text/css">
	.st0{fill:#3393E3;}
</style>
<path class="st0" d="M42.3208,29.5049h14.4029v3.6276H38.4136V0.1399h3.9072V29.5049z M130.4205,16.6372
	c0-9.3031,7.5961-16.5906,17.2939-16.5906c9.6713,0,17.2473,7.2875,17.2473,16.5906c0,9.3291-7.576,16.6372-17.2473,16.6372
	C138.0166,33.2744,130.4205,25.9663,130.4205,16.6372z M134.3764,16.6372c0,7.1993,5.9833,13.0562,13.338,13.0562
	c7.303,0,13.2447-5.8569,13.2447-13.0562c0-7.1476-5.9417-12.9629-13.2447-12.9629
	C140.3598,3.6742,134.3764,9.4895,134.3764,16.6372z M192.7739,24.2388c0.0269-6.5174-5.5172-8.2062-10.4087-9.6965l0.0877-0.2879
	l-0.094,0.2858c-4.3036-1.313-8.0207-2.4476-8.0207-6.299c0-2.7307,2.6484-4.4271,6.9117-4.4271
	c3.0338,0,6.4019,1.0128,9.0091,2.7089l0.0755,0.0496l1.6641-3.4714l-0.058-0.0391C189.0905,1.1447,185.1807,0,181.483,0
	c-6.9428,0-11.4291,3.3446-11.4291,8.5208c0,6.3754,5.4722,8.0122,10.3008,9.4567c4.3805,1.3114,8.1551,2.4413,8.1349,6.4473
	c0,3.151-2.8465,5.0335-7.6146,5.0335c-3.7506,0-7.9182-1.7536-10.8764-4.5757l-0.076-0.0723l-1.764,3.3832l0.0428,0.0407
	c3.3055,3.156,8.0253,5.0401,12.625,5.0401C187.9727,33.2744,192.7739,29.6435,192.7739,24.2388z M17.3871,3.6276
	c3.6062,0,7.2115,1.3781,9.8914,3.7813l0.0613,0.055l2.257-2.8449l-0.0555-0.0483c-3.2626-2.8755-7.6923-4.5241-12.1542-4.5241
	C7.6373,0.0466,0,7.3341,0,16.6372c0,9.3291,7.5546,16.6372,17.1986,16.6372c4.3036,0,8.8811-1.6024,12.2453-4.2868l0.0285-0.0231
	V16.9341h-3.7187V27.1l-0.139,0.0891c-2.4867,1.5914-5.4688,2.5043-8.181,2.5043c-7.4315,0-13.4778-5.8569-13.4778-13.0562
	C3.9559,9.4639,9.9812,3.6276,17.3871,3.6276z M125.9846,24.1435c0,5.6289-4.4657,8.989-11.9455,8.989h-14.106V0.1399h13.9175
	c6.716,0,10.7257,3.0981,10.7257,8.2877c0,3.3496-1.7233,5.9274-4.7286,7.0725l-0.8524,0.325l0.878,0.246
	C123.7574,17.1604,125.9846,20.1027,125.9846,24.1435z M122.0286,23.6736c0-1.4407-0.4803-2.648-1.4281-3.5881
	c-1.3891-1.3765-3.7296-2.1037-6.7689-2.1037h-6.1752v-3.6276h6.0055c4.3923,0,6.9117-1.9551,6.9117-5.3635
	c0-3.3194-2.5195-5.2232-6.9117-5.2232h-9.8195v25.7374h9.8128c0.1361,0.0029,0.2709,0.0046,0.4044,0.0046
	c2.8721,0,5.1141-0.7223,6.5006-2.0979C121.5344,26.4471,122.0286,25.1891,122.0286,23.6736z M71.8034,51.9477
	c0,3.411-2.7613,6.0523-6.3242,6.0523s-6.326-2.6413-6.326-6.0523c0-3.4269,2.7631-6.017,6.326-6.017
	S71.8034,48.5384,71.8034,51.9477z M69.7412,51.9477c0-2.3693-1.9103-4.2108-4.2461-4.2108c-2.3517,0-4.2956,1.8415-4.2956,4.2108
	c0,2.3711,1.9615,4.2462,4.2956,4.2462C67.8309,56.1939,69.7412,54.3188,69.7412,51.9477z M78.1793,49.0328
	c0-0.8016,0.7663-1.2448,1.9421-1.2448c0.9039,0,2.1999,0.3249,3.4958,1.1088l0.8351-1.7726
	c-1.1087-0.7345-2.6253-1.2289-4.1773-1.2289c-2.59,0-4.3468,1.28-4.3468,3.3245c0,4.2462,6.4443,2.7631,6.4443,5.422
	c0,0.9198-0.8351,1.4496-2.2335,1.4496c-1.2782,0-2.8125-0.6144-4.0395-1.7391l-0.8704,1.7391
	c1.2271,1.1246,3.0014,1.8926,4.8764,1.8926c2.6254,0,4.5004-1.3136,4.5004-3.4446C84.6235,50.244,78.1793,51.6405,78.1793,49.0328z
	 M89.3609,57.9152h2.0127V45.9819h-2.0127V57.9152z M102.3188,47.721c1.2447,0,2.5247,0.5102,3.4445,1.363l1.1423-1.483
	c-1.1759-1.0222-2.8814-1.6702-4.5869-1.6702c-3.6141,0-6.3931,2.6077-6.3931,6.017c0,3.411,2.7454,6.0523,6.2747,6.0523
	c1.6367,0,3.4269-0.6303,4.6363-1.5502v-4.3997h-1.755v3.3245c-0.8527,0.512-1.8591,0.8192-2.7454,0.8192
	c-2.4382,0-4.3644-1.8592-4.3644-4.2462C97.972,49.5784,99.8823,47.721,102.3188,47.721z M120.2201,52.9717
	c0,2.0287-1.2094,3.2222-3.1533,3.2222c-1.9597,0-3.2045-1.2112-3.2045-3.2222v-6.9898h-2.0127v6.9898
	c0,3.1198,1.9774,5.0283,5.1995,5.0283s5.1836-1.9086,5.1836-5.0283v-6.9898h-2.0127V52.9717z M148.0249,45.9819l5.2172,11.9333
	h-2.1487l-1.1423-2.6942h-6.0188l-1.1423,2.6942h-2.0957l5.2666-11.9333H148.0249z M149.1831,53.4307l-2.2493-5.3019l-2.2511,5.3019
	H149.1831z M165.6013,54.5572l-6.3931-8.5753h-1.9791v11.9333h2.0127v-8.5576l6.3595,8.5576h1.9774V45.9819h-1.9774V54.5572z
	 M172.6057,47.7881h4.1261v6.3771c0,1.2271-0.6303,1.8909-1.7055,1.8909c-0.8174,0-1.7549-0.4591-2.5406-1.3118l-0.9534,1.5343
	C172.4186,57.3697,173.6121,58,175.0439,58c2.3005,0,3.7165-1.363,3.7165-3.7677v-8.2504h-6.1547V47.7881z M186.0579,56.1073
	v-3.2892h5.8298v-1.7902h-5.8298v-3.2398h6.5131v-1.8061h-8.5258v11.9333h8.7289v-1.8079H186.0579z M137.1664,50.055
	c0-2.5901-1.7569-4.0731-4.8077-4.0731h-4.8428v11.9334h2.0127V47.7881h2.8301c1.8414,0,2.8972,0.7504,2.8972,2.3181
	c0,1.6208-1.0558,2.4047-2.8972,2.4047h-1.6431v1.8079h1.6431c0.1871,0,0.3743,0,0.5455-0.0177l2.1822,3.6142h2.2848l-2.6767-3.9902
	C136.2799,53.3124,137.1664,51.9653,137.1664,50.055z M93.6945,16.6372c0,9.3291-7.576,16.6372-17.2473,16.6372
	c-9.6977,0-17.2939-7.3081-17.2939-16.6372c0-9.3031,7.5962-16.5906,17.2939-16.5906C86.1185,0.0466,93.6945,7.3341,93.6945,16.6372
	z M87.2031,16.5575c0.8666-0.3014,1.7041-0.6875,2.3953-1.199c0.0097-0.0069,0.0167-0.0153,0.0262-0.0223
	c-0.221-2.1609-0.9883-4.1657-2.1616-5.8835c-0.1739,0.1233-0.3506,0.2336-0.5289,0.3315
	c-0.6441,0.3486-1.3086,0.5692-1.9757,0.7481c-0.0691,0.018-0.1387,0.0295-0.2079,0.0464c0.6705,2.076,0.9786,4.2678,0.8998,6.4341
	C86.1756,16.8803,86.6956,16.7337,87.2031,16.5575z M81.3585,4.6088c0.0444,0.0501,0.0957,0.0939,0.1393,0.1446
	c1.267,1.4621,2.2304,3.1512,2.9179,4.9343c0.0859-0.0281,0.1743-0.0506,0.2595-0.0804c0.5989-0.2128,1.1848-0.4669,1.6846-0.7948
	c0.1419-0.0928,0.2738-0.1928,0.3956-0.296C85.339,6.7974,83.4843,5.4433,81.3585,4.6088z M87.2782,24.1279
	c-0.3477,0.1118-0.6971,0.2091-1.0478,0.2956c-1.4439,0.3504-2.9068,0.519-4.3661,0.5878c-2.9211,0.1252-5.8311-0.208-8.6391-0.8783
	c2.8499,0.46,5.7509,0.5701,8.5875,0.2353c1.4152-0.1725,2.8186-0.4436,4.1546-0.8759c0.6654-0.2172,1.3171-0.4738,1.9107-0.791
	c0.1405-0.0761,0.2768-0.1571,0.4064-0.2414c0.8925-1.7557,1.4075-3.7291,1.4075-5.823c0-0.01-0.0015-0.0196-0.0015-0.0296
	c-0.7098,0.3845-1.4496,0.6571-2.1937,0.8717c-0.6359,0.1806-1.2768,0.3148-1.9193,0.4308c-0.1631,1.8865-0.6056,3.7399-1.3798,5.46
	c0.6798-1.7356,1.0249-3.5702,1.0992-5.412c-1.1706,0.1961-2.3475,0.3118-3.5226,0.3677c-1.9158,0.0893-3.8313,0.0153-5.7289-0.1849
	c-1.895-0.2156-3.78-0.5581-5.5905-1.14c1.8401,0.4784,3.7293,0.7113,5.6166,0.8186c1.889,0.0918,3.783,0.0571,5.6557-0.1369
	c1.2132-0.1259,2.4213-0.3177,3.5988-0.5952c-0.0191-2.1711-0.431-4.333-1.1957-6.3373c-0.0039-0.0102-0.0092-0.0197-0.0131-0.0299
	c-1.0617,0.2107-2.1311,0.31-3.1958,0.3407c-2.6961,0.0622-5.3616-0.3364-7.9271-1.0181c2.6118,0.4726,5.2781,0.6473,7.8857,0.3744
	c0.9739-0.1068,1.9424-0.2711,2.8743-0.5247c-0.7424-1.656-1.7315-3.1927-2.9722-4.4884c-0.5112-0.5366-1.0746-1.0144-1.659-1.4635
	c-0.8645-0.1743-1.7594-0.2664-2.6758-0.2664c-7.3547,0-13.3379,5.8153-13.3379,12.9629c0,7.1993,5.9832,13.0562,13.3379,13.0562
	C80.9227,29.6934,84.8794,27.4881,87.2782,24.1279z"/>
</svg>
